<?xml version="1.0" encoding="UTF-8"?>
<!DOCTYPE svg PUBLIC "-//W3C//DTD SVG 1.1//EN" "http://www.w3.org/Graphics/SVG/1.1/DTD/svg11.dtd">
<!-- Creator: CorelDRAW X7 -->
<svg xmlns="http://www.w3.org/2000/svg" xml:space="preserve" width="160.06mm" height="133.045mm" version="1.1" style="shape-rendering:geometricPrecision; text-rendering:geometricPrecision; image-rendering:optimizeQuality; fill-rule:evenodd; clip-rule:evenodd"
viewBox="0 0 16006 13304"
 xmlns:xlink="http://www.w3.org/1999/xlink">
 <defs>
  <style type="text/css">
   <![CDATA[
    .fil0 {fill:#1E88E5}
   ]]>
  </style>
 </defs>
 <g id="Capa_x0020_1">
  <metadata id="CorelCorpID_0Corel-Layer"/>
  <path class="fil0" d="M2011 6977l-34 5584c-426,-15 -1964,-209 -1552,535 167,304 1588,178 2030,178 1656,0 12389,93 13064,-45 462,-853 -654,-686 -1581,-670 -187,-740 -45,-4529 -52,-5593 -587,-167 -774,-239 -1159,-557 -327,112 -1207,933 -2493,392 -302,-126 -480,-302 -697,-381 -1520,979 -2023,539 -3121,-18 -354,320 -864,568 -1493,573 -851,9 -1090,-316 -1593,-553 -455,275 -631,426 -1319,555zm1319 -1268c307,201 1559,1757 3099,-20 465,334 598,783 1514,807 818,21 1306,-403 1585,-805 454,348 659,776 1518,805 781,25 1363,-381 1584,-811 360,277 1251,1355 2566,550 372,-230 679,-566 785,-1056 129,-591 -271,-929 -521,-1294 -501,-727 -965,-1414 -1459,-2118 -253,-361 -499,-713 -753,-1081 -562,-816 -273,-658 -2073,-665 110,591 1031,2817 1353,3692l332 878c67,403 33,230 -82,358 -378,224 -498,-548 -640,-920 -426,-1121 -1189,-3000 -1493,-3992l-1423 -14c31,778 194,1690 295,2490 47,384 388,2231 160,2425 -478,410 -530,-1518 -613,-2210 -109,-887 -215,-1789 -339,-2687l-1448 -9 -478 3868c-56,452 -4,982 -365,1117 -399,-217 -66,-1464 36,-2328 101,-848 284,-1829 311,-2668l-1407 5 -1723 4614c-136,363 -131,411 -503,336 -122,-527 1488,-4041 1694,-4946 -2048,-38 -1390,-302 -2912,1850 -510,721 -977,1425 -1457,2124 -244,354 -598,616 -429,1216 260,918 1247,1468 2226,1216 551,-143 731,-431 1060,-727zm1406 4595l2217 43 6 -2019c-437,-66 -1847,-97 -2230,27l7 1949zm4219 2248l2402 -4 3 -4240 -2387 -9 -18 4253z"/>
 </g>
</svg>
